<?xml version="1.0" standalone="no"?>
<!DOCTYPE svg PUBLIC "-//W3C//DTD SVG 20010904//EN"
 "http://www.w3.org/TR/2001/REC-SVG-20010904/DTD/svg10.dtd">
<svg version="1.0" xmlns="http://www.w3.org/2000/svg"
 width="370.000000pt" height="254.000000pt" viewBox="0 0 370.000000 254.000000"
 preserveAspectRatio="xMidYMid meet">

<g transform="translate(0.000000,254.000000) scale(0.100000,-0.100000)"
fill="#ffffff" stroke="none">
<path d="M1116 2465 c-101 -19 -186 -44 -186 -54 0 -5 21 -16 48 -26 280 -106
520 -316 637 -560 44 -91 75 -204 75 -269 l0 -36 130 0 129 0 12 42 c58 215
52 440 -16 656 -14 44 -34 91 -45 105 -24 31 -161 89 -290 124 -122 32 -368
41 -494 18z"/>
<path d="M828 2376 c-65 -24 -188 -99 -272 -167 -183 -148 -326 -360 -390
-578 l-16 -53 23 16 c63 45 211 130 282 160 265 115 581 121 813 15 88 -40
178 -106 249 -184 57 -61 63 -65 105 -65 l45 0 -9 63 c-36 267 -234 535 -509
689 -83 46 -210 101 -259 112 -14 3 -42 -1 -62 -8z"/>
<path d="M1973 2277 c4 -10 17 -64 29 -120 38 -177 29 -502 -17 -619 -7 -17 9
-18 254 -18 204 0 261 3 261 13 0 34 -46 172 -84 253 -94 199 -249 380 -421
490 -27 18 -29 18 -22 1z"/>
<path d="M800 1814 c-197 -23 -375 -90 -558 -211 -45 -30 -89 -64 -96 -76 -20
-31 -36 -149 -36 -259 0 -208 66 -450 168 -613 29 -46 31 -48 36 -25 3 14 15
70 27 124 65 309 198 543 388 688 158 119 376 187 611 188 l85 1 -35 30 c-53
46 -206 116 -290 133 -80 16 -241 27 -300 20z"/>
<path d="M1022 1560 c-40 -11 -109 -38 -155 -62 -67 -34 -102 -63 -197 -157
-121 -122 -172 -198 -230 -339 -52 -129 -102 -383 -87 -443 10 -39 112 -154
200 -224 171 -137 354 -220 571 -259 l39 -7 -34 41 c-208 255 -293 438 -318
683 -23 227 39 411 225 671 45 64 77 116 71 115 -7 0 -45 -9 -85 -19z"/>
<path d="M2325 1426 c-40 -40 -28 -77 30 -96 25 -8 35 -17 33 -28 -3 -13 -13
-16 -46 -14 -40 2 -42 1 -32 -18 15 -28 55 -36 86 -15 20 13 25 23 22 48 -2
26 -10 36 -40 50 -24 12 -38 26 -38 38 0 20 29 26 46 9 5 -5 15 -6 22 -1 16
10 -4 36 -35 46 -17 4 -29 -1 -48 -19z"/>
<path d="M1721 1419 c-5 -13 -23 -55 -39 -94 -26 -60 -28 -71 -15 -74 9 -1 20
4 25 13 12 21 76 22 84 1 5 -12 44 -23 44 -12 0 9 -73 173 -81 181 -5 5 -12
-1 -18 -15z m33 -96 c6 -20 4 -23 -19 -23 -22 0 -26 3 -20 18 4 9 10 25 13 36
5 20 14 11 26 -31z"/>
<path d="M1792 1428 c3 -7 17 -14 31 -16 27 -3 27 -4 27 -83 0 -64 3 -79 15
-79 12 0 15 16 15 80 0 79 0 80 25 80 16 0 25 6 25 15 0 12 -15 15 -71 15 -52
0 -70 -3 -67 -12z"/>
<path d="M1940 1345 c0 -78 3 -95 15 -95 11 0 15 11 15 43 l0 42 28 -42 c15
-24 35 -43 45 -43 22 0 22 3 -10 52 l-27 41 27 48 c25 45 26 49 8 49 -12 0
-29 -16 -45 -42 l-25 -43 -1 43 c0 30 -4 42 -15 42 -12 0 -15 -17 -15 -95z"/>
<path d="M2080 1345 c0 -78 3 -95 15 -95 12 0 15 17 15 95 0 78 -3 95 -15 95
-12 0 -15 -17 -15 -95z"/>
<path d="M2132 1343 c2 -66 7 -98 16 -101 9 -3 12 13 12 57 0 34 4 61 9 61 5
0 34 -28 65 -62 l55 -63 1 103 c0 84 -3 102 -15 102 -12 0 -15 -14 -15 -62
l-1 -63 -57 63 c-31 34 -61 62 -65 62 -4 0 -6 -44 -5 -97z"/>
<path d="M911 1208 c-55 -116 -74 -201 -73 -333 1 -236 82 -458 241 -657 78
-99 132 -145 177 -154 65 -12 243 4 354 32 191 48 354 132 500 256 77 66 167
165 157 174 -3 3 -40 -2 -84 -10 -424 -80 -829 49 -1049 336 -63 81 -96 157
-134 307 -19 72 -37 131 -41 131 -5 0 -26 -37 -48 -82z"/>
<path d="M2184 1121 c-65 -28 -83 -110 -35 -163 24 -27 36 -33 71 -33 35 0 47
6 71 33 20 22 29 43 29 67 0 65 -78 120 -136 96z m76 -41 c35 -19 33 -88 -4
-112 -21 -14 -66 -8 -86 12 -56 56 18 139 90 100z"/>
<path d="M2474 1120 c-62 -25 -82 -107 -39 -158 62 -74 175 -33 175 63 0 73
-70 122 -136 95z m86 -50 c41 -41 10 -110 -47 -110 -34 0 -46 8 -62 38 -34 65
56 125 109 72z"/>
<path d="M2676 1115 c-42 -22 -55 -44 -56 -91 0 -64 59 -112 121 -99 33 7 79
58 79 86 0 16 -7 19 -50 19 -38 0 -50 -4 -50 -15 0 -10 10 -15 32 -15 30 0 31
0 13 -20 -25 -28 -79 -27 -99 2 -38 54 -2 112 66 106 51 -4 61 15 17 31 -40
14 -38 14 -73 -4z"/>
<path d="M1810 1025 c0 -78 3 -95 15 -95 10 0 15 10 15 30 0 28 3 30 35 30 63
0 95 57 59 108 -12 18 -25 22 -70 22 l-54 0 0 -95z m101 49 c19 -23 -1 -48
-40 -52 -30 -3 -31 -2 -31 32 0 33 2 36 29 36 16 0 34 -7 42 -16z"/>
<path d="M1960 1025 c0 -78 3 -95 15 -95 11 0 15 11 15 40 l0 40 45 0 45 0 0
-40 c0 -29 4 -40 15 -40 12 0 15 17 15 95 0 78 -3 95 -15 95 -11 0 -15 -11
-15 -40 l0 -40 -45 0 -45 0 0 40 c0 29 -4 40 -15 40 -12 0 -15 -17 -15 -95z"/>
<path d="M2300 1105 c0 -9 9 -15 25 -15 25 0 25 -1 25 -80 0 -64 3 -80 15 -80
12 0 15 16 15 80 0 79 0 80 25 80 16 0 25 6 25 15 0 12 -14 15 -65 15 -51 0
-65 -3 -65 -15z"/>
<path d="M2830 1025 c0 -78 3 -95 15 -95 10 0 15 10 15 30 0 19 5 30 14 30 8
0 23 -13 33 -30 15 -26 23 -30 59 -30 28 0 44 5 48 15 3 10 19 15 45 15 25 0
41 -5 45 -15 3 -8 13 -15 22 -15 18 0 19 -2 -29 112 -18 43 -35 78 -38 78 -4
0 -23 -40 -44 -90 -21 -49 -41 -90 -45 -90 -4 0 -15 12 -25 26 -15 23 -15 27
-1 43 20 23 21 75 0 95 -10 10 -33 16 -65 16 l-49 0 0 -95z m98 38 c2 -14 -4
-26 -18 -33 -31 -17 -50 -5 -50 30 0 29 2 31 33 28 24 -2 33 -8 35 -25z m152
-70 c0 -7 -9 -13 -20 -13 -21 0 -25 15 -13 46 6 16 7 16 20 -2 7 -10 13 -24
13 -31z"/>
<path d="M3160 1025 c0 -78 3 -95 15 -95 10 0 15 10 15 30 0 27 3 30 33 30 41
0 67 26 67 67 0 42 -27 63 -83 63 l-47 0 0 -95z m97 49 c9 -24 -10 -49 -41
-52 -24 -3 -26 0 -26 32 0 33 2 36 30 36 19 0 33 -6 37 -16z"/>
<path d="M3310 1025 c0 -78 3 -95 15 -95 11 0 15 11 15 40 l0 40 40 0 40 0 0
-40 c0 -29 4 -40 15 -40 12 0 15 17 15 95 0 78 -3 95 -15 95 -11 0 -15 -11
-15 -40 l0 -40 -40 0 -40 0 0 40 c0 29 -4 40 -15 40 -12 0 -15 -17 -15 -95z"/>
<path d="M3491 1068 c19 -35 29 -68 29 -95 0 -32 4 -43 15 -43 10 0 15 11 15
35 0 20 14 62 30 95 27 54 28 60 12 60 -11 0 -25 -14 -36 -37 l-18 -38 -19 38
c-12 23 -27 37 -38 37 -18 0 -17 -5 10 -52z"/>
<path d="M1111 939 c95 -177 296 -317 558 -387 83 -22 117 -25 256 -25 192 -1
352 27 395 68 29 27 88 134 119 213 l21 52 -223 0 c-122 0 -296 -5 -387 -11
-331 -22 -401 -11 -619 91 -71 33 -134 60 -141 60 -6 0 3 -27 21 -61z"/>
</g>
</svg>
